<svg xmlns="http://www.w3.org/2000/svg" width="56" height="56" viewBox="0 0 56 56" fill="none"><rect width="56" height="56" rx="28" fill="#FB977D" fill-opacity="0.05"></rect><path d="M16 40H40" stroke="#FB977D" stroke-width="2" stroke-linecap="round" stroke-linejoin="round"></path><path d="M37.333 39.9998V34.6665" stroke="#FB977D" stroke-width="2" stroke-linecap="round" stroke-linejoin="round"></path><path d="M37.3337 34.6665C38.0409 34.6665 38.7192 34.3856 39.2193 33.8855C39.7194 33.3854 40.0003 32.7071 40.0003 31.9998V29.3332C40.0003 28.6259 39.7194 27.9477 39.2193 27.4476C38.7192 26.9475 38.0409 26.6665 37.3337 26.6665C36.6264 26.6665 35.9481 26.9475 35.448 27.4476C34.9479 27.9477 34.667 28.6259 34.667 29.3332V31.9998C34.667 32.7071 34.9479 33.3854 35.448 33.8855C35.9481 34.3856 36.6264 34.6665 37.3337 34.6665Z" stroke="#FB977D" stroke-width="2" stroke-linecap="round" stroke-linejoin="round"></path><path d="M30.6663 40.0002V21.3335C30.6663 20.2726 30.2449 19.2552 29.4948 18.5051C28.7446 17.7549 27.7272 17.3335 26.6663 17.3335H21.333C20.2721 17.3335 19.2547 17.7549 18.5046 18.5051C17.7544 19.2552 17.333 20.2726 17.333 21.3335V40.0002" stroke="#FB977D" stroke-width="2" stroke-linecap="round" stroke-linejoin="round"></path><path d="M24 34.6665V39.9998" stroke="#FB977D" stroke-width="2" stroke-linecap="round" stroke-linejoin="round"></path><path d="M22.667 29.3335H25.3337" stroke="#FB977D" stroke-width="2" stroke-linecap="round" stroke-linejoin="round"></path><path d="M22.667 24H25.3337" stroke="#FB977D" stroke-width="2" stroke-linecap="round" stroke-linejoin="round"></path></svg>