<svg xmlns="http://www.w3.org/2000/svg" width="56" height="56" viewBox="0 0 56 56" fill="none"><rect width="56" height="56" rx="28" fill="#0085DB" fill-opacity="0.05"></rect><path d="M17.333 18.6668C17.333 18.3132 17.4735 17.9741 17.7235 17.724C17.9736 17.474 18.3127 17.3335 18.6663 17.3335H23.9997C24.3533 17.3335 24.6924 17.474 24.9425 17.724C25.1925 17.9741 25.333 18.3132 25.333 18.6668V24.0002C25.333 24.3538 25.1925 24.6929 24.9425 24.943C24.6924 25.193 24.3533 25.3335 23.9997 25.3335H18.6663C18.3127 25.3335 17.9736 25.193 17.7235 24.943C17.4735 24.6929 17.333 24.3538 17.333 24.0002V18.6668Z" stroke="#0085DB" stroke-width="2" stroke-linecap="round" stroke-linejoin="round"></path><path d="M30.667 18.6668C30.667 18.3132 30.8075 17.9741 31.0575 17.724C31.3076 17.474 31.6467 17.3335 32.0003 17.3335H37.3337C37.6873 17.3335 38.0264 17.474 38.2765 17.724C38.5265 17.9741 38.667 18.3132 38.667 18.6668V24.0002C38.667 24.3538 38.5265 24.6929 38.2765 24.943C38.0264 25.193 37.6873 25.3335 37.3337 25.3335H32.0003C31.6467 25.3335 31.3076 25.193 31.0575 24.943C30.8075 24.6929 30.667 24.3538 30.667 24.0002V18.6668Z" stroke="#0085DB" stroke-width="2" stroke-linecap="round" stroke-linejoin="round"></path><path d="M17.333 31.9998C17.333 31.6462 17.4735 31.3071 17.7235 31.057C17.9736 30.807 18.3127 30.6665 18.6663 30.6665H23.9997C24.3533 30.6665 24.6924 30.807 24.9425 31.057C25.1925 31.3071 25.333 31.6462 25.333 31.9998V37.3332C25.333 37.6868 25.1925 38.0259 24.9425 38.276C24.6924 38.526 24.3533 38.6665 23.9997 38.6665H18.6663C18.3127 38.6665 17.9736 38.526 17.7235 38.276C17.4735 38.0259 17.333 37.6868 17.333 37.3332V31.9998Z" stroke="#0085DB" stroke-width="2" stroke-linecap="round" stroke-linejoin="round"></path><path d="M30.667 34.6665H38.667M34.667 30.6665V38.6665" stroke="#0085DB" stroke-width="2" stroke-linecap="round" stroke-linejoin="round"></path></svg>