<svg xmlns="http://www.w3.org/2000/svg" width="56" height="56" viewBox="0 0 56 56" fill="none"><rect width="56" height="56" rx="28" fill="#09C97F" fill-opacity="0.05"></rect><g clip-path="url(#clip0_576_1776)"><path d="M16 29.3333C16 28.9797 16.1405 28.6406 16.3905 28.3905C16.6406 28.1405 16.9797 28 17.3333 28H22.6667C23.0203 28 23.3594 28.1405 23.6095 28.3905C23.8595 28.6406 24 28.9797 24 29.3333V37.3333C24 37.687 23.8595 38.0261 23.6095 38.2761C23.3594 38.5262 23.0203 38.6667 22.6667 38.6667H17.3333C16.9797 38.6667 16.6406 38.5262 16.3905 38.2761C16.1405 38.0261 16 37.687 16 37.3333V29.3333Z" stroke="#09C97F" stroke-width="2" stroke-linecap="round" stroke-linejoin="round"></path><path d="M24 23.9998C24 23.6462 24.1405 23.3071 24.3905 23.057C24.6406 22.807 24.9797 22.6665 25.3333 22.6665H30.6667C31.0203 22.6665 31.3594 22.807 31.6095 23.057C31.8595 23.3071 32 23.6462 32 23.9998V37.3332C32 37.6868 31.8595 38.0259 31.6095 38.276C31.3594 38.526 31.0203 38.6665 30.6667 38.6665H25.3333C24.9797 38.6665 24.6406 38.526 24.3905 38.276C24.1405 38.0259 24 37.6868 24 37.3332V23.9998Z" stroke="#09C97F" stroke-width="2" stroke-linecap="round" stroke-linejoin="round"></path><path d="M32 18.6668C32 18.3132 32.1405 17.9741 32.3905 17.724C32.6406 17.474 32.9797 17.3335 33.3333 17.3335H38.6667C39.0203 17.3335 39.3594 17.474 39.6095 17.724C39.8595 17.9741 40 18.3132 40 18.6668V37.3335C40 37.6871 39.8595 38.0263 39.6095 38.2763C39.3594 38.5264 39.0203 38.6668 38.6667 38.6668H33.3333C32.9797 38.6668 32.6406 38.5264 32.3905 38.2763C32.1405 38.0263 32 37.6871 32 37.3335V18.6668Z" stroke="#09C97F" stroke-width="2" stroke-linecap="round" stroke-linejoin="round"></path><path d="M17.333 38.6665H35.9997" stroke="#09C97F" stroke-width="2" stroke-linecap="round" stroke-linejoin="round"></path></g><defs><clipPath id="clip0_576_1776"><rect width="32" height="32" fill="white" transform="translate(12 12)"></rect></clipPath></defs></svg>